<svg width="870" height="301" viewBox="0 0 870 301" fill="none" xmlns="http://www.w3.org/2000/svg">
<path d="M363.63 125.926C363.63 133.646 362.236 140.319 359.448 145.942C356.66 151.566 352.835 155.903 347.974 158.953C343.113 162.003 337.56 163.528 331.317 163.528C325.074 163.528 319.522 162.003 314.661 158.953C309.8 155.903 305.975 151.566 303.187 145.942C300.399 140.319 299.005 133.646 299.005 125.926C299.005 118.205 300.399 111.533 303.187 105.909C305.975 100.286 309.8 95.9488 314.661 92.8986C319.522 89.8485 325.074 88.3234 331.317 88.3234C337.56 88.3234 343.113 89.8485 347.974 92.8986C352.835 95.9488 356.66 100.286 359.448 105.909C362.236 111.533 363.63 118.205 363.63 125.926ZM355.051 125.926C355.051 119.587 353.991 114.238 351.87 109.877C349.773 105.516 346.925 102.216 343.327 99.9759C339.753 97.736 335.749 96.616 331.317 96.616C326.885 96.616 322.87 97.736 319.272 99.9759C315.697 102.216 312.85 105.516 310.729 109.877C308.632 114.238 307.583 119.587 307.583 125.926C307.583 132.264 308.632 137.614 310.729 141.975C312.85 146.335 315.697 149.636 319.272 151.876C322.87 154.116 326.885 155.236 331.317 155.236C335.749 155.236 339.753 154.116 343.327 151.876C346.925 149.636 349.773 146.335 351.87 141.975C353.991 137.614 355.051 132.264 355.051 125.926ZM378.535 162.527V89.3243H403.269C409.012 89.3243 413.706 90.3608 417.352 92.434C421.022 94.4833 423.738 97.2594 425.502 100.762C427.265 104.265 428.147 108.173 428.147 112.486C428.147 116.799 427.265 120.719 425.502 124.246C423.762 127.773 421.07 130.584 417.424 132.681C413.778 134.754 409.107 135.791 403.412 135.791H385.683V127.927H403.126C407.058 127.927 410.215 127.248 412.598 125.89C414.981 124.532 416.709 122.697 417.781 120.386C418.877 118.05 419.425 115.417 419.425 112.486C419.425 109.555 418.877 106.934 417.781 104.623C416.709 102.311 414.969 100.5 412.563 99.1895C410.156 97.8551 406.963 97.1879 402.983 97.1879H387.399V162.527H378.535ZM438.423 97.1879V89.3243H493.325V97.1879H470.307V162.527H461.442V97.1879H438.423ZM515.871 89.3243V162.527H507.006V89.3243H515.871ZM533.644 89.3243H544.224L569.102 150.089H569.96L594.838 89.3243H605.418V162.527H597.125V106.91H596.41L573.534 162.527H565.528L542.652 106.91H541.937V162.527H533.644V89.3243ZM632.056 89.3243V162.527H623.191V89.3243H632.056ZM689.862 107.625C689.433 104.003 687.694 101.191 684.644 99.1895C681.593 97.1879 677.852 96.1871 673.42 96.1871C670.179 96.1871 667.344 96.7113 664.913 97.7598C662.506 98.8083 660.624 100.25 659.266 102.085C657.931 103.92 657.264 106.005 657.264 108.34C657.264 110.294 657.729 111.974 658.658 113.38C659.611 114.762 660.826 115.918 662.304 116.847C663.781 117.752 665.33 118.503 666.95 119.099C668.571 119.671 670.06 120.135 671.418 120.493L678.853 122.494C680.759 122.995 682.88 123.686 685.215 124.568C687.575 125.449 689.826 126.653 691.971 128.178C694.139 129.679 695.927 131.609 697.333 133.968C698.738 136.327 699.441 139.222 699.441 142.654C699.441 146.609 698.405 150.184 696.332 153.377C694.282 156.57 691.28 159.108 687.324 160.99C683.393 162.873 678.615 163.814 672.991 163.814C667.749 163.814 663.209 162.968 659.373 161.276C655.56 159.584 652.558 157.225 650.365 154.199C648.197 151.173 646.97 147.658 646.684 143.655H655.834C656.072 146.419 657.002 148.706 658.622 150.517C660.266 152.305 662.34 153.639 664.842 154.521C667.367 155.379 670.084 155.808 672.991 155.808C676.375 155.808 679.413 155.259 682.106 154.163C684.798 153.043 686.931 151.494 688.504 149.517C690.077 147.515 690.863 145.18 690.863 142.511C690.863 140.08 690.184 138.102 688.826 136.577C687.467 135.052 685.68 133.813 683.464 132.86C681.248 131.907 678.853 131.073 676.28 130.358L667.272 127.784C661.553 126.14 657.026 123.793 653.69 120.743C650.353 117.693 648.685 113.701 648.685 108.769C648.685 104.67 649.793 101.096 652.01 98.0457C654.25 94.9718 657.252 92.5889 661.017 90.897C664.806 89.1813 669.035 88.3234 673.706 88.3234C678.424 88.3234 682.618 89.1694 686.288 90.8612C689.957 92.5293 692.865 94.8169 695.009 97.724C697.178 100.631 698.321 103.932 698.441 107.625H689.862ZM710.013 97.1879V89.3243H764.915V97.1879H741.896V162.527H733.032V97.1879H710.013ZM787.46 89.3243V162.527H778.596V89.3243H787.46ZM864.139 112.2H855.275C854.751 109.651 853.833 107.411 852.523 105.48C851.236 103.55 849.663 101.93 847.805 100.619C845.97 99.2848 843.932 98.284 841.692 97.6168C839.452 96.9496 837.117 96.616 834.687 96.616C830.254 96.616 826.239 97.736 822.641 99.9759C819.067 102.216 816.219 105.516 814.098 109.877C812.001 114.238 810.953 119.587 810.953 125.926C810.953 132.264 812.001 137.614 814.098 141.975C816.219 146.335 819.067 149.636 822.641 151.876C826.239 154.116 830.254 155.236 834.687 155.236C837.117 155.236 839.452 154.902 841.692 154.235C843.932 153.568 845.97 152.579 847.805 151.268C849.663 149.934 851.236 148.301 852.523 146.371C853.833 144.417 854.751 142.177 855.275 139.651H864.139C863.472 143.393 862.257 146.741 860.494 149.695C858.73 152.65 856.538 155.164 853.917 157.237C851.296 159.287 848.353 160.847 845.088 161.92C841.847 162.992 838.38 163.528 834.687 163.528C828.443 163.528 822.891 162.003 818.03 158.953C813.169 155.903 809.344 151.566 806.556 145.942C803.768 140.319 802.374 133.646 802.374 125.926C802.374 118.205 803.768 111.533 806.556 105.909C809.344 100.286 813.169 95.9488 818.03 92.8986C822.891 89.8485 828.443 88.3234 834.687 88.3234C838.38 88.3234 841.847 88.8596 845.088 89.9319C848.353 91.0042 851.296 92.5769 853.917 94.6501C856.538 96.6994 858.73 99.2014 860.494 102.156C862.257 105.087 863.472 108.435 864.139 112.2Z" fill="#e9e9ed"/>
<path d="M301.639 217.543V178.543H305.2V214.344H323.786V217.543H301.639ZM341.293 217.543H337.56L351.747 178.543H355.556L369.743 217.543H366.01L353.785 183.171H353.518L341.293 217.543ZM343.978 202.594H363.325V205.794H343.978V202.594ZM383.398 217.543V178.543H396.556C399.095 178.543 401.209 178.988 402.898 179.876C404.599 180.765 405.875 181.977 406.725 183.513C407.576 185.05 408.001 186.795 408.001 188.75C408.001 190.375 407.728 191.765 407.182 192.921C406.636 194.076 405.894 195.009 404.954 195.72C404.015 196.431 402.967 196.945 401.812 197.262V197.567C403.069 197.656 404.288 198.1 405.468 198.9C406.649 199.687 407.62 200.792 408.382 202.214C409.144 203.635 409.525 205.337 409.525 207.317C409.525 209.285 409.087 211.043 408.211 212.592C407.335 214.128 405.989 215.34 404.174 216.229C402.371 217.105 400.073 217.543 397.28 217.543H383.398ZM386.959 214.344H397.28C400.289 214.344 402.51 213.677 403.945 212.344C405.392 211.011 406.116 209.336 406.116 207.317C406.116 205.832 405.754 204.486 405.03 203.28C404.32 202.061 403.31 201.096 402.003 200.385C400.708 199.674 399.184 199.319 397.432 199.319H386.959V214.344ZM386.959 196.158H396.88C398.416 196.158 399.762 195.841 400.917 195.206C402.072 194.571 402.974 193.695 403.621 192.578C404.269 191.461 404.592 190.185 404.592 188.75C404.592 186.681 403.92 184.999 402.574 183.704C401.228 182.396 399.222 181.742 396.556 181.742H386.959V196.158ZM446.264 188.293C446.049 186.122 445.09 184.396 443.389 183.114C441.688 181.831 439.549 181.19 436.972 181.19C435.156 181.19 433.557 181.501 432.173 182.123C430.802 182.745 429.723 183.609 428.935 184.713C428.161 185.805 427.774 187.049 427.774 188.446C427.774 189.474 427.996 190.375 428.44 191.15C428.885 191.924 429.481 192.591 430.23 193.149C430.992 193.695 431.83 194.165 432.744 194.558C433.671 194.952 434.604 195.282 435.543 195.549L439.657 196.729C440.901 197.072 442.145 197.51 443.389 198.043C444.633 198.576 445.769 199.249 446.798 200.062C447.839 200.861 448.67 201.845 449.292 203.013C449.927 204.169 450.244 205.559 450.244 207.184C450.244 209.266 449.705 211.138 448.626 212.801C447.547 214.464 445.998 215.785 443.979 216.762C441.961 217.727 439.542 218.209 436.724 218.209C434.071 218.209 431.767 217.771 429.811 216.896C427.856 216.007 426.32 214.782 425.203 213.22C424.086 211.659 423.457 209.85 423.318 207.793H426.974C427.101 209.329 427.609 210.63 428.497 211.697C429.386 212.763 430.541 213.576 431.963 214.134C433.385 214.68 434.972 214.953 436.724 214.953C438.666 214.953 440.393 214.629 441.904 213.982C443.427 213.322 444.62 212.408 445.484 211.24C446.36 210.059 446.798 208.688 446.798 207.127C446.798 205.806 446.455 204.702 445.769 203.813C445.084 202.912 444.125 202.156 442.894 201.547C441.675 200.938 440.26 200.398 438.647 199.928L433.982 198.557C430.922 197.643 428.548 196.38 426.86 194.768C425.171 193.155 424.327 191.099 424.327 188.598C424.327 186.503 424.886 184.662 426.003 183.075C427.133 181.476 428.656 180.232 430.573 179.343C432.503 178.442 434.667 177.991 437.067 177.991C439.492 177.991 441.637 178.435 443.503 179.324C445.369 180.213 446.848 181.438 447.94 182.999C449.045 184.548 449.635 186.313 449.711 188.293H446.264Z" fill="#e9e9ed"/>
<path d="M146.666 99.124C176.821 99.124 201.267 123.57 201.268 153.725C201.268 183.88 176.821 208.326 146.666 208.326C116.511 208.326 92.0654 183.88 92.0654 153.725C92.0657 123.57 116.511 99.1243 146.666 99.124Z" fill="#7F6CFD" stroke="#7F6CFD" stroke-width="2.15473"/>
<path d="M49.2967 203.03C22.2473 149.598 43.9253 83.4155 97.3778 56.3556C119.756 45.027 145.349 41.7638 169.846 47.0921L168.817 51.8231C166.973 60.305 158.578 65.5354 149.904 65.2162C135.004 64.6678 120.117 67.8868 106.663 74.6975C63.3432 96.6279 45.7161 150.441 67.6385 193.745C89.5622 237.051 143.35 254.708 186.667 232.779C225.234 213.255 243.443 168.478 231.502 128.319C229.028 119.998 231.97 110.553 239.715 106.633L244.034 104.446C271.093 157.897 249.404 224.061 195.953 251.121C142.498 278.182 76.3448 256.459 49.2967 203.03Z" fill="#7F6CFD"/>
<path d="M213.067 12.1399L214.286 45.38C214.793 59.1974 225.924 70.2609 239.744 70.6823L272.982 71.7009L239.741 72.9199C225.924 73.426 214.861 84.5576 214.439 98.3776L213.421 131.615L212.202 98.3749C211.696 84.5576 200.564 73.4941 186.744 73.0727L153.506 72.0541L186.747 70.8351C200.564 70.329 211.627 59.1973 212.049 45.3774L213.067 12.1399Z" fill="#e9e9ed"/>
</svg>
